<?xml version="1.0" encoding="UTF-8"?> <svg xmlns="http://www.w3.org/2000/svg" xmlns:xlink="http://www.w3.org/1999/xlink" width="75px" height="59px" viewBox="0 0 75 59" version="1.1"><title>25A75E7A-2C7D-4B33-AAFC-965D8A6772A9@2x</title><defs><linearGradient x1="50%" y1="1.23259516e-30%" x2="50%" y2="100%" id="linearGradient-1"><stop stop-color="#EBBB5B" offset="0%"></stop><stop stop-color="#BF9849" offset="100%"></stop></linearGradient></defs><g id="Page-1" stroke="none" stroke-width="1" fill="none" fill-rule="evenodd"><g id="01.1-Home-Design-1" transform="translate(-185.000000, -1055.000000)" fill="url(#linearGradient-1)" fill-rule="nonzero"><g id="Group-5" transform="translate(84.000000, 1020.000000)"><g id="car-tire-change-svgrepo-com" transform="translate(101.000000, 35.000000)"><path d="M71.858,23.505 L71.858,13.645 L66.233,13.645 L58.324,0 L26.088,0 L18.504,13.101 L4.034,2.494 L2.65,4.382 L15.29,13.645 L2.171,13.645 L2.171,23.505 L0,23.505 L0,28.177 L2.175,28.177 L2.175,31.78 L15.701,31.78 L15.701,30.612 C15.701,28.095 17.755,26.042 20.278,26.042 C22.798,26.042 24.848,28.095 24.848,30.612 L24.848,31.78 L30.543,31.78 L30.543,33.646 L33.828,33.646 L33.828,56.665 L26.724,56.665 L26.724,59.001 L47.939,59.001 L47.939,56.665 L40.836,56.665 L40.836,33.646 L44.118,33.646 L44.118,31.78 L48.423,31.78 C48.98,35.036 51.796,37.519 55.204,37.519 C58.616,37.519 61.438,35.036 61.995,31.78 L71.855,31.78 L71.855,28.177 L74.666,28.177 L74.666,23.505 L71.858,23.505 Z M55.206,35.188 C52.688,35.188 50.64,33.14 50.64,30.612 C50.64,28.095 52.689,26.042 55.206,26.042 C57.729,26.042 59.782,28.095 59.782,30.612 C59.782,33.14 57.729,35.188 55.206,35.188 Z M69.522,29.445 L61.999,29.445 C61.442,26.191 58.621,23.706 55.209,23.706 C51.801,23.706 48.983,26.191 48.427,29.445 L27.085,29.445 C26.529,26.189 23.687,23.706 20.277,23.706 C16.863,23.706 14.017,26.189 13.463,29.445 L4.511,29.445 L4.511,15.981 L19.536,15.981 L27.439,2.336 L56.981,2.336 L64.887,15.981 L69.527,15.981 L69.527,29.445 L69.522,29.445 Z M40.795,5.262 L54.038,5.262 L54.038,15.892 L40.795,15.892 L40.795,5.262 Z M56.374,7.126 L61.452,15.89 L56.374,15.89 L56.374,7.126 Z M29.12,5.262 L38.459,5.262 L38.459,15.892 L22.959,15.892 L29.12,5.262 Z M17.53,36.504 C13.716,36.504 10.616,39.602 10.616,43.411 C10.616,45.477 11.55,47.316 13.001,48.584 L11.102,48.584 L11.102,53.256 L23.96,53.256 L23.96,48.584 L22.061,48.584 C23.507,47.316 24.446,45.478 24.446,43.411 C24.437,39.602 21.339,36.504 17.53,36.504 Z M17.53,47.978 C15.008,47.978 12.952,45.93 12.952,43.412 C12.952,40.889 15.008,38.841 17.53,38.841 C20.049,38.841 22.0990015,40.889 22.0990015,43.412 C22.101,45.93 20.053,47.978 17.53,47.978 Z M11.102,54.328 L23.96,54.328 L23.96,59 L11.102,59 L11.102,54.328 Z" id="Shape"></path></g></g></g></g></svg> 