<?xml version="1.0" encoding="UTF-8"?> <svg xmlns="http://www.w3.org/2000/svg" xmlns:xlink="http://www.w3.org/1999/xlink" width="68px" height="68px" viewBox="0 0 68 68" version="1.1"><title>9977C9FD-910F-40A4-8D25-1898D3C3BC41@2x</title><defs><linearGradient x1="50%" y1="1.23259516e-30%" x2="50%" y2="100%" id="linearGradient-1"><stop stop-color="#EBBB5B" offset="0%"></stop><stop stop-color="#BF9849" offset="100%"></stop></linearGradient><linearGradient x1="50%" y1="1.23259516e-30%" x2="50%" y2="100%" id="linearGradient-2"><stop stop-color="#EBBB5B" offset="0%"></stop><stop stop-color="#BF9849" offset="100%"></stop></linearGradient><linearGradient x1="50%" y1="1.23259516e-30%" x2="50%" y2="100%" id="linearGradient-3"><stop stop-color="#EBBB5B" offset="0%"></stop><stop stop-color="#BF9849" offset="100%"></stop></linearGradient><linearGradient x1="50%" y1="1.23259516e-30%" x2="50%" y2="100%" id="linearGradient-4"><stop stop-color="#EBBB5B" offset="0%"></stop><stop stop-color="#BF9849" offset="100%"></stop></linearGradient><linearGradient x1="50%" y1="1.23259516e-30%" x2="50%" y2="100%" id="linearGradient-5"><stop stop-color="#EBBB5B" offset="0%"></stop><stop stop-color="#BF9849" offset="100%"></stop></linearGradient><linearGradient x1="50%" y1="1.23259516e-30%" x2="50%" y2="100%" id="linearGradient-6"><stop stop-color="#EBBB5B" offset="0%"></stop><stop stop-color="#BF9849" offset="100%"></stop></linearGradient><linearGradient x1="50%" y1="1.23259516e-30%" x2="50%" y2="100%" id="linearGradient-7"><stop stop-color="#EBBB5B" offset="0%"></stop><stop stop-color="#BF9849" offset="100%"></stop></linearGradient><linearGradient x1="50%" y1="1.23259516e-30%" x2="50%" y2="100%" id="linearGradient-8"><stop stop-color="#EBBB5B" offset="0%"></stop><stop stop-color="#BF9849" offset="100%"></stop></linearGradient></defs><g id="Page-1" stroke="none" stroke-width="1" fill="none" fill-rule="evenodd"><g id="01.1-Home-Design-1" transform="translate(-495.000000, -1055.000000)" fill-rule="nonzero"><g id="Group-5" transform="translate(391.000000, 1020.000000)"><g id="mechanic-worker-svgrepo-com" transform="translate(104.000000, 35.000000)"><path d="M20.6078113,13.6804577 C29.3639895,12.0597499 38.3807454,12.0586874 47.3963059,13.681653 L53.4358097,14.7469399 C53.5003564,14.758229 53.565036,14.775229 53.6250671,14.7979398 L54.38555,15.0744549 C54.2247144,6.73663528 47.4054699,0 39.0300644,0 L28.9705997,0 C20.6270691,0 13.8305355,6.68669788 13.6196296,14.9804239 L14.486628,14.7639399 L20.6078113,13.6804577 Z M27.2003453,4.53341302 C27.2003453,3.90786737 27.7068912,3.40012617 28.3336322,3.40012617 L39.6668991,3.40012617 C40.2936401,3.40012617 40.8001859,3.90786737 40.8001859,4.53341302 L40.8001859,9.06669323 C40.8001859,9.69223888 40.2936401,10.1999801 39.6668991,10.1999801 L28.3336322,10.1999801 C27.7068912,10.1999801 27.2003453,9.69223888 27.2003453,9.06669323 L27.2003453,4.53341302 Z" id="Shape" fill="url(#linearGradient-1)"></path><rect id="Rectangle" fill="url(#linearGradient-2)" x="29.4665206" y="5.66669987" width="9.06669323" height="2.26670651"></rect><path d="M55.9896563,51.464876 L56.4928818,50.8834241 C54.5106592,50.1637145 52.4661475,49.5381689 50.3763469,48.988459 L49.7348638,50.2487144 L44.9793887,58.9334396 L49.3574114,58.9334396 L55.9896563,51.464876 Z" id="Path" fill="url(#linearGradient-3)"></path><path d="M18.6428542,58.9333068 L23.0208769,58.9333068 L18.2813393,50.2723549 L17.5650829,49.0041309 C15.5171181,49.5436142 13.5133799,50.1578708 11.570868,50.8616428 L12.0740936,51.5496103 L18.6428542,58.9333068 Z" id="Path" fill="url(#linearGradient-4)"></path><path d="M51.0002988,61.1998805 L49.867012,61.1998805 L43.0670253,61.1998805 L24.9337716,61.1998805 L18.1337849,61.1998805 L17.000498,61.1998805 C15.1259861,61.1998805 13.6005047,62.7253619 13.6005047,64.5998738 L13.6005047,67.9998672 L54.400425,67.9998672 L54.400425,64.5998738 C54.400425,62.7253619 52.8749436,61.1998805 51.0002988,61.1998805 Z M21.5337783,64.5998738 C20.9082326,64.5998738 20.4004914,64.0921326 20.4004914,63.466587 C20.4004914,62.8410413 20.9082326,62.3333001 21.5337783,62.3333001 C22.1593239,62.3333001 22.6670651,62.8410413 22.6670651,63.466587 C22.6670651,64.0921326 22.1593239,64.5998738 21.5337783,64.5998738 Z M46.4670186,64.5998738 C45.841473,64.5998738 45.3337318,64.0921326 45.3337318,63.466587 C45.3337318,62.8410413 45.841473,62.3333001 46.4670186,62.3333001 C47.0925643,62.3333001 47.6003055,62.8410413 47.6003055,63.466587 C47.6003055,64.0921326 47.0926971,64.5998738 46.4670186,64.5998738 Z" id="Shape" fill="url(#linearGradient-5)"></path><path d="M64.6135535,54.474667 C64.3347806,54.3284408 64.0570702,54.1844723 63.7805551,54.0439569 C62.1497536,53.2121539 60.4667569,52.4504757 58.7395337,51.7501567 L57.694567,52.9594122 L52.2557729,59.0839159 C54.7762836,59.6584616 56.6667331,61.9081681 56.6667331,64.5998738 L56.6667331,67.9998672 L66.8667132,67.9998672 C67.4934541,67.9998672 68,67.492126 68,66.8665803 L68,60.0665936 C68,57.7159498 66.7022916,55.573954 64.6135535,54.474667 Z" id="Path" fill="url(#linearGradient-6)"></path><path d="M20.2621011,49.1718727 L25.6046062,58.9333068 L42.3949953,58.9333068 L47.7307271,49.190068 L48.1172107,48.4307804 C46.807018,48.1304919 45.4754424,47.8652659 44.1289919,47.6295242 C44.1732184,47.2475562 44.2004449,46.86001 44.2004449,46.466753 L44.2004449,43.5495321 C49.0624354,39.3323451 52.1337185,32.4621007 52.1337185,26.0667928 L52.1337185,20.2108355 C52.1382341,20.2073824 52.143945,20.2051246 52.1484606,20.200609 C53.0506542,19.4435792 53.7101998,18.4620968 54.0739725,17.3718411 L52.9452013,16.9626466 L46.9997285,15.9131642 C38.2481987,14.3378782 29.5067627,14.3378782 21.0102324,15.9119689 L14.9582442,16.9795137 L13.8917619,17.2458023 C14.2465034,18.3859953 14.9152131,19.4138293 15.852469,20.2003434 C15.8569847,20.204859 15.8626956,20.2071168 15.8672112,20.2116324 L15.8672112,26.0663944 C15.8672112,32.461835 18.9384943,39.3320794 23.8004848,43.5491337 L23.8004848,46.4663546 C23.8004848,46.8596116 23.8277113,47.2471577 23.8719378,47.6291257 C22.5131357,47.8671253 21.1701383,48.1334138 19.8486565,48.4371554 L20.2621011,49.1718727 Z M41.9337384,46.4666202 C41.9337384,47.0820721 41.8567073,47.6793288 41.7229654,48.2550698 L41.7219029,48.2562651 C41.5269345,49.1040057 41.1926461,49.8837463 40.7631313,50.5932293 C40.7155845,50.6714557 40.6701628,50.7519399 40.6203582,50.8277757 C40.4368116,51.1088064 40.232812,51.3705794 40.0163281,51.623321 C39.9200392,51.7366099 39.8202972,51.8465784 39.7171021,51.9530938 C39.5108447,52.1683825 39.2955561,52.3746399 39.0665878,52.5650926 C38.9430724,52.6682878 38.8115883,52.7623188 38.6812995,52.8575452 C38.4931045,52.9947402 38.3005268,53.1250291 38.1010428,53.2450913 C37.9673008,53.326638 37.8335589,53.4083176 37.6942389,53.4818955 C37.4199816,53.625864 37.1344353,53.7526997 36.8419827,53.864926 C36.7320142,53.9068947 36.6221785,53.9487306 36.5110146,53.9861836 C36.1687575,54.0994725 35.8185316,54.1936363 35.458212,54.2593784 C35.3789231,54.2753159 35.2961811,54.2843471 35.2156968,54.2968315 C34.8179242,54.3580579 34.4144406,54.4000266 34.0007305,54.4000266 C33.5870203,54.4000266 33.1847321,54.3580579 32.7869594,54.2968315 C32.7064752,54.2843471 32.625991,54.2753159 32.5467021,54.2605737 C32.1851871,54.1937692 31.8338988,54.0996053 31.4904463,53.9863164 C31.3816731,53.9500587 31.2762202,53.9092853 31.1697047,53.868512 C30.8716741,53.7552231 30.5804168,53.6259968 30.2992533,53.478708 C30.170027,53.4095129 30.0465116,53.3336771 29.9229962,53.2589038 C29.7132857,53.1331306 29.5115439,52.9981934 29.3144506,52.8531624 C29.1977086,52.7669673 29.076451,52.684358 28.9642247,52.5913895 C28.7239673,52.3931008 28.4984522,52.1776793 28.2819682,51.9511017 C28.1834215,51.8491019 28.0881951,51.7436489 27.9952266,51.636071 C27.7764848,51.3810715 27.5691649,51.1158455 27.3832278,50.8313617 C27.335681,50.7599087 27.2947748,50.6840729 27.2494858,50.6115574 C26.8177132,49.9032697 26.4822295,49.1245916 26.2839409,48.2791088 C26.1479411,47.695399 26.0674569,47.091369 26.0674569,46.4668858 L26.0674569,45.233857 C28.4361632,46.7196275 31.116447,47.6003055 34.0007305,47.6003055 C36.8850139,47.6003055 39.5654305,46.7197603 41.934004,45.233857 L41.934004,46.4666202 L41.9337384,46.4666202 Z M18.1337849,26.06666 L18.1337849,21.4234113 C18.1610114,21.43138 18.1882379,21.4347003 18.2153316,21.4426691 C18.321847,21.4721534 18.4295578,21.493669 18.5371357,21.5174423 C18.6583932,21.5446689 18.7796508,21.5741532 18.9021037,21.593411 C19.0098144,21.6116062 19.1185877,21.6183797 19.2262984,21.630864 C19.3510091,21.6433484 19.4733292,21.6614108 19.5980398,21.6671217 C19.7272662,21.6728327 19.8564925,21.6671217 19.985586,21.6660592 C20.0910389,21.6648639 20.1952965,21.6695124 20.3006166,21.6626061 C20.5374208,21.647864 20.7743579,21.619575 21.0100996,21.5788016 C29.5066299,20.0045781 38.2480659,20.0045781 46.9995957,21.5799969 C47.3293685,21.6377702 47.6591413,21.6604811 47.9878516,21.6661921 C48.0253046,21.6672546 48.0626249,21.6764186 48.1000779,21.6764186 C48.1363357,21.6764186 48.1715309,21.6673874 48.2077887,21.6673874 C48.5387568,21.6616764 48.8673342,21.6379031 49.1903336,21.581325 C49.1925914,21.581325 49.1948492,21.5801297 49.1983023,21.5801297 C49.4238175,21.5393564 49.6470749,21.4883565 49.867012,21.4236769 L49.867012,26.0669257 C49.867012,36.3666477 42.5582216,44.2296636 35.4918135,45.2224351 C35.4465245,45.2292085 35.402298,45.235982 35.3570091,45.2416929 C34.9037209,45.3006615 34.4502999,45.3334661 34.0004648,45.3334661 C33.550497,45.3334661 33.0972088,45.3006615 32.6439206,45.2416929 C32.5986316,45.235982 32.5544052,45.228146 32.5091162,45.2224351 C25.4415128,44.229398 18.1337849,36.3663821 18.1337849,26.06666 Z" id="Shape" fill="url(#linearGradient-7)"></path><path d="M10.3132689,52.9716309 L9.38278636,51.7034068 C7.61372732,52.4162101 5.88876194,53.1926305 4.22050738,54.0436913 C3.9439923,54.1842067 3.6662819,54.3281751 3.38750901,54.4744014 C1.2987709,55.5736883 0,57.7168795 0,60.066328 L0,66.8663147 C0,67.4930557 0.507741196,67.9996016 1.13328685,67.9996016 L11.3332669,67.9996016 L11.3332669,64.5996082 C11.3332669,61.9079025 13.2247789,59.6583288 15.7452896,59.0836502 L10.3132689,52.9716309 Z" id="Path" fill="url(#linearGradient-8)"></path></g></g></g></g></svg> 