<?xml version="1.0" encoding="UTF-8"?> <svg xmlns="http://www.w3.org/2000/svg" xmlns:xlink="http://www.w3.org/1999/xlink" width="70px" height="58px" viewBox="0 0 70 58" version="1.1"><title>FBCC4C83-C307-4951-BDA0-7725704191D1@2x</title><defs><linearGradient x1="50%" y1="1.23259516e-30%" x2="50%" y2="100%" id="linearGradient-1"><stop stop-color="#EBBB5B" offset="0%"></stop><stop stop-color="#BF9849" offset="100%"></stop></linearGradient></defs><g id="Page-1" stroke="none" stroke-width="1" fill="none" fill-rule="evenodd"><g id="01.1-Home-Design-1" transform="translate(-802.000000, -1055.000000)" fill="url(#linearGradient-1)" fill-rule="nonzero"><g id="Group-5" transform="translate(698.000000, 1020.000000)"><g id="car-insurance-svgrepo-com" transform="translate(104.000000, 35.000000)"><path d="M68.7825136,42.3854583 L57.0710748,52.358366 L57.0710748,55.9382464 C57.0710748,56.7044078 56.4191685,57.2306219 55.6528927,57.2306219 L47.8414546,57.2306219 C47.0751788,57.2306219 46.4233869,56.6816483 46.4233869,55.9382464 L46.4233869,47.9095061 C46.4233869,47.4863389 46.6405746,47.0401834 46.9723606,46.8229957 L61.2799875,37.936484 L62.6981695,19.0655133 C62.6981695,17.4300291 63.9905451,16.1376536 65.6260292,16.1376536 C67.2615133,16.1376536 68.5540033,17.4300291 68.5540033,18.9511438 L69.972071,39.3432291 C70.0863261,40.9901502 69.880461,41.5161356 68.7825136,42.3854583 Z M12.6042056,35.3517329 L12.6042056,33.7161344 L12.6042056,21.2498567 C12.6042056,19.8316747 12.8215077,18.8595338 13.4734139,17.4527887 L20.4156438,3.03079227 C21.1819195,1.39530814 23.3435035,-3.55271368e-15 25.1848527,-3.55271368e-15 L44.8220992,-3.55271368e-15 C46.7663811,-3.55271368e-15 48.9508389,1.29237557 49.6942408,3.03079227 L56.6364706,17.4527887 C57.2883769,18.8709707 57.505679,19.9460442 57.505679,21.2498567 L57.505679,33.7275713 L57.505679,35.3630554 C57.505679,35.9120291 56.9567053,36.4495659 56.4191685,36.4495659 L50.8951207,36.4495659 C50.2432145,36.4495659 49.8086103,35.9005922 49.8086103,35.3630554 L49.8086103,33.7275713 L49.8086103,31.8747851 L20.3012742,31.8747851 L20.3012742,33.7161344 L20.3012742,35.3517329 C20.3012742,35.9007066 19.7523006,36.4382433 19.2147638,36.4382433 L13.690716,36.4382433 C13.1531793,36.4382433 12.6042056,35.8891552 12.6042056,35.3517329 Z M50.2432145,20.700883 C48.2989326,20.700883 46.7664954,22.3363672 46.7664954,24.1777164 C46.7664954,26.0190657 48.28761,27.6545498 50.2432145,27.6545498 C52.1874963,27.6545498 53.7200479,26.1334352 53.7200479,24.1777164 C53.7200479,22.2219976 52.1874963,20.700883 50.2432145,20.700883 Z M18.8945292,17.0181845 L51.2153554,17.0181845 L46.4461464,7.0451624 C45.4740055,5.10088057 44.6047971,4.65483945 42.6491927,4.65483945 L27.3693106,4.65483945 C25.4250287,4.65483945 24.5558204,5.07800667 23.686612,7.0451624 L18.8945292,17.0181845 Z M16.4012736,24.1662795 C16.4012736,26.0076287 17.9223882,27.6431129 19.878107,27.6431129 C21.8338258,27.6431129 23.3549404,26.1219983 23.3549404,24.1662795 C23.3549404,22.2105607 21.8338258,20.6894461 19.878107,20.6894461 C17.9223882,20.6895605 16.4012736,22.3249302 16.4012736,24.1662795 Z M23.1262014,46.9373652 L8.81857448,38.0508535 L7.40039244,19.1798828 C7.50332501,17.4414661 6.10801687,16.1490905 4.47253274,16.1490905 C2.83704861,16.1490905 1.44174047,17.4414661 1.44174047,19.0655133 L0.0235584316,39.4690356 C-0.079374136,41.1045197 0.126490999,41.6305051 1.21300143,42.4998278 L12.9244402,52.4727356 L12.9244402,56.0526159 C12.9244402,56.8187773 13.5763465,57.3449915 14.3426223,57.3449915 L22.26843,57.3449915 C23.0347058,57.3449915 23.686612,56.7960178 23.686612,56.0526159 L23.686612,48.0238756 C23.6637381,47.600594 23.446436,47.1774268 23.1262014,46.9373652 Z" id="Shape"></path></g></g></g></g></svg> 