<?xml version="1.0" encoding="UTF-8"?> <svg xmlns="http://www.w3.org/2000/svg" id="Layer_1" data-name="Layer 1" viewBox="0 0 119.85 66.01"><g id="Page-1"><g id="_01.1-Home-Design-1" data-name="01.1-Home-Design-1"><g id="Group-21"><path id="Fill-1" d="M8.28,66.82V60.29h1.86a2.06,2.06,0,0,1,1.34.41,1.34,1.34,0,0,1,.5,1.08,1.58,1.58,0,0,1-1.13,1.55v0a1.7,1.7,0,0,1,1.06.49A1.58,1.58,0,0,1,12.3,65a1.71,1.71,0,0,1-.6,1.35,2.26,2.26,0,0,1-1.52.52ZM9,61v2.11h.79a1.5,1.5,0,0,0,1-.31,1.08,1.08,0,0,0,.35-.85c0-.63-.42-1-1.25-1Zm0,2.8v2.35h1a1.53,1.53,0,0,0,1.05-.32,1.07,1.07,0,0,0,.37-.87c0-.78-.52-1.16-1.58-1.16Zm8.05,3H13.63V60.29h3.31V61H14.39v2.17h2.36v.69H14.39v2.29h2.7Zm5.51-6.53L20.44,64.4v2.42h-.76v-2.4l-2.1-4.13h.86l1.47,3s.07.17.16.4h0a2,2,0,0,1,.16-.4l1.54-3Zm3.54,6.64A2.85,2.85,0,0,1,23.92,66a3.42,3.42,0,0,1-.84-2.39,3.61,3.61,0,0,1,.85-2.51,3,3,0,0,1,2.33-.94,2.74,2.74,0,0,1,2.17.91,3.37,3.37,0,0,1,.83,2.38A3.6,3.6,0,0,1,28.41,66a2.86,2.86,0,0,1-2.27.93Zm.06-6.06a2.08,2.08,0,0,0-1.67.74,3.28,3.28,0,0,0,0,3.89,2,2,0,0,0,1.63.74,2.15,2.15,0,0,0,1.7-.7,2.89,2.89,0,0,0,.62-2,3,3,0,0,0-.6-2,2,2,0,0,0-1.66-.71Zm9.61,5.95h-.93l-3.36-5.21a1.77,1.77,0,0,1-.21-.41h0a6.19,6.19,0,0,1,0,.9v4.72h-.76V60.29h1l3.28,5.12c.13.22.22.36.26.44h0a6.81,6.81,0,0,1-.05-1v-4.6h.76Zm1.72,0V60.29h1.8q3.47,0,3.46,3.18a3.24,3.24,0,0,1-1,2.44,3.62,3.62,0,0,1-2.57.91ZM38.3,61v5.15h1a2.76,2.76,0,0,0,2-.69A2.57,2.57,0,0,0,42,63.49C42,61.82,41.1,61,39.32,61Z" transform="translate(-0.2 -0.92)" style="fill:#fefefe;fill-rule:evenodd"></path><path id="Fill-3" d="M65.12,66.56v-.91a1.5,1.5,0,0,0,.37.25,2.32,2.32,0,0,0,.46.18,4.77,4.77,0,0,0,.47.13l.45,0A1.75,1.75,0,0,0,67.93,66a.9.9,0,0,0,.34-.75.85.85,0,0,0-.11-.46,1.39,1.39,0,0,0-.33-.36,2.66,2.66,0,0,0-.48-.31l-.6-.31-.64-.36a2.28,2.28,0,0,1-.52-.39,1.61,1.61,0,0,1-.34-.48,1.59,1.59,0,0,1-.12-.64,1.44,1.44,0,0,1,.19-.77,1.61,1.61,0,0,1,.52-.55,2.36,2.36,0,0,1,.72-.32,3.39,3.39,0,0,1,.84-.1,3.16,3.16,0,0,1,1.41.23v.86a2.54,2.54,0,0,0-1.49-.4,2.07,2.07,0,0,0-.5.05,1.28,1.28,0,0,0-.45.17,1,1,0,0,0-.32.31.81.81,0,0,0-.12.46,1,1,0,0,0,.09.43,1.23,1.23,0,0,0,.28.33,2.24,2.24,0,0,0,.44.29c.18.09.37.2.61.31s.46.24.66.36a3,3,0,0,1,.55.43,1.71,1.71,0,0,1,.37.52,1.32,1.32,0,0,1,.15.64,1.68,1.68,0,0,1-.19.82,1.58,1.58,0,0,1-.52.54,2.3,2.3,0,0,1-.73.31,3.68,3.68,0,0,1-.89.09l-.38,0a4.11,4.11,0,0,1-.47-.07c-.15,0-.3-.07-.45-.12a1.27,1.27,0,0,1-.33-.16ZM74.25,61H72.36v5.84H71.6V61H69.71v-.69h4.54Zm6.08,5.84h-.85L78.79,65H76l-.65,1.83h-.85L77,60.29h.79ZM78.55,64.3l-1-2.79a2.3,2.3,0,0,1-.1-.43h0a2.44,2.44,0,0,1-.1.44l-1,2.78Zm8,2.52h-.93l-3.37-5.21a2.27,2.27,0,0,1-.21-.41h0a5.7,5.7,0,0,1,0,.9v4.72h-.77V60.29h1l3.28,5.12c.13.22.22.36.26.44h0a6.81,6.81,0,0,1,0-1v-4.6h.77Zm1.72,0V60.29h1.8q3.45,0,3.45,3.18a3.24,3.24,0,0,1-1,2.44,3.6,3.6,0,0,1-2.57.91ZM89,61v5.15h1a2.8,2.8,0,0,0,2-.69,2.61,2.61,0,0,0,.71-1.95c0-1.67-.89-2.51-2.67-2.51Zm10.84,5.84H99L98.34,65H95.57l-.66,1.83h-.85l2.51-6.53h.8ZM98.09,64.3l-1-2.79a1.61,1.61,0,0,1-.11-.43h0a2.33,2.33,0,0,1-.11.44l-1,2.78Zm7.43,2.52h-.91L103.52,65a3.73,3.73,0,0,0-.29-.44c-.1-.12-.2-.21-.29-.3a.85.85,0,0,0-.32-.15,1.18,1.18,0,0,0-.39-.06h-.62v2.78h-.77V60.29h2a2.8,2.8,0,0,1,.79.1,1.8,1.8,0,0,1,.63.33,1.55,1.55,0,0,1,.42.55,1.73,1.73,0,0,1,.15.75,1.77,1.77,0,0,1-.11.63,1.58,1.58,0,0,1-.28.51,2.5,2.5,0,0,1-.46.39,3.26,3.26,0,0,1-.6.24v0a1.84,1.84,0,0,1,.28.15,1.67,1.67,0,0,1,.23.23c.07.08.14.19.22.29s.15.23.23.37ZM101.61,61v2.37h1a1.74,1.74,0,0,0,.53-.08,1.24,1.24,0,0,0,.43-.26,1.19,1.19,0,0,0,.27-.39,1.14,1.14,0,0,0,.1-.53,1,1,0,0,0-.33-.82,1.46,1.46,0,0,0-1-.29Zm4.81,5.84V60.29h1.8q3.47,0,3.46,3.18a3.21,3.21,0,0,1-1,2.44,3.57,3.57,0,0,1-2.56.91Zm.77-5.84v5.15h1a2.78,2.78,0,0,0,2-.69,2.57,2.57,0,0,0,.71-1.95c0-1.67-.88-2.51-2.67-2.51Z" transform="translate(-0.2 -0.92)" style="fill:#fefefe;fill-rule:evenodd"></path><g id="Fill-5"><path id="path-1" d="M50.49,61H48.61v5.84h-.77V61H46v-.69h4.53Zm5.94,5.84h-.77v-3H52.28v3h-.76V60.29h.76v2.86h3.38V60.29h.77Zm5.18,0H58.15V60.29h3.31V61H58.91v2.17h2.36v.69H58.91v2.29h2.7Z" transform="translate(-0.2 -0.92)" style="fill:#bf9849;fill-rule:evenodd"></path><path id="path-1-2" data-name="path-1" d="M50.49,61H48.61v5.84h-.77V61H46v-.69h4.53Zm5.94,5.84h-.77v-3H52.28v3h-.76V60.29h.76v2.86h3.38V60.29h.77Zm5.18,0H58.15V60.29h3.31V61H58.91v2.17h2.36v.69H58.91v2.29h2.7Z" transform="translate(-0.2 -0.92)" style="fill:#eeaf2f;fill-rule:evenodd"></path></g><g id="Fill-7"><path id="path-2" d="M46.24,28.4c1.69.09,2.94.12,3.68.16s1.41.06,1.9.06c.68,0,2.27-.06,4.82-.22h.43v1.44a3.31,3.31,0,0,0-2.06.43,3.48,3.48,0,0,0-.46,2.24V46.29a8.87,8.87,0,0,1-1.81,6,6.44,6.44,0,0,1-5.21,2.09A6.33,6.33,0,0,1,43.35,53a4.18,4.18,0,0,1-1.62-3.35,2.5,2.5,0,0,1,.73-1.84,2.24,2.24,0,0,1,1.75-.77,2.29,2.29,0,0,1,1.72.68,2.34,2.34,0,0,1,.68,1.72,2.92,2.92,0,0,1-.37,1.5A3.15,3.15,0,0,1,45,52a1.39,1.39,0,0,0,.68.74,2.5,2.5,0,0,0,1.22.28,2.2,2.2,0,0,0,1.94-.89,5.51,5.51,0,0,0,.58-2.92V32.51c0-1.22-.19-2-.52-2.24a4.55,4.55,0,0,0-2.4-.43h-.27Z" transform="translate(-0.2 -0.92)" style="fill:#bf9849;fill-rule:evenodd"></path><path id="path-2-2" data-name="path-2" d="M46.24,28.4c1.69.09,2.94.12,3.68.16s1.41.06,1.9.06c.68,0,2.27-.06,4.82-.22h.43v1.44a3.31,3.31,0,0,0-2.06.43,3.48,3.48,0,0,0-.46,2.24V46.29a8.87,8.87,0,0,1-1.81,6,6.44,6.44,0,0,1-5.21,2.09A6.33,6.33,0,0,1,43.35,53a4.18,4.18,0,0,1-1.62-3.35,2.5,2.5,0,0,1,.73-1.84,2.24,2.24,0,0,1,1.75-.77,2.29,2.29,0,0,1,1.72.68,2.34,2.34,0,0,1,.68,1.72,2.92,2.92,0,0,1-.37,1.5A3.15,3.15,0,0,1,45,52a1.39,1.39,0,0,0,.68.74,2.5,2.5,0,0,0,1.22.28,2.2,2.2,0,0,0,1.94-.89,5.51,5.51,0,0,0,.58-2.92V32.51c0-1.22-.19-2-.52-2.24a4.55,4.55,0,0,0-2.4-.43h-.27Z" transform="translate(-0.2 -0.92)" style="fill:#eeaf2f;fill-rule:evenodd"></path></g><g id="Fill-9"><path id="path-3" d="M59.47,28.71c1,.06,2,.09,2.76.12s1.47.06,2,.06,1.38,0,2.24-.06,1.78-.06,2.82-.12v1.44a3.63,3.63,0,0,0-1.65.31.91.91,0,0,0-.43.86,3.09,3.09,0,0,0,.06.43c.06.18.12.43.24.76L72.23,45.8l4.48-13.22c.09-.28.15-.56.21-.8A5.7,5.7,0,0,0,77,31.2a.84.84,0,0,0-.55-.8,4.66,4.66,0,0,0-1.75-.25V28.71c.25,0,.59,0,1,.06,1,.09,1.75.12,2.08.12s1,0,2-.12c.46,0,.82-.06,1.07-.06v1.44a3.37,3.37,0,0,0-1.5.37,2.11,2.11,0,0,0-.68,1L73.92,45.31c-.19.55-.49,1.32-.86,2.3L71.68,51,69,50.8,61.89,32A3.61,3.61,0,0,0,61,30.46a2.39,2.39,0,0,0-1.38-.31h-.12Z" transform="translate(-0.2 -0.92)" style="fill:#bf9849;fill-rule:evenodd"></path><path id="path-3-2" data-name="path-3" d="M59.47,28.71c1,.06,2,.09,2.76.12s1.47.06,2,.06,1.38,0,2.24-.06,1.78-.06,2.82-.12v1.44a3.63,3.63,0,0,0-1.65.31.91.91,0,0,0-.43.86,3.09,3.09,0,0,0,.06.43c.06.18.12.43.24.76L72.23,45.8l4.48-13.22c.09-.28.15-.56.21-.8A5.7,5.7,0,0,0,77,31.2a.84.84,0,0,0-.55-.8,4.66,4.66,0,0,0-1.75-.25V28.71c.25,0,.59,0,1,.06,1,.09,1.75.12,2.08.12s1,0,2-.12c.46,0,.82-.06,1.07-.06v1.44a3.37,3.37,0,0,0-1.5.37,2.11,2.11,0,0,0-.68,1L73.92,45.31c-.19.55-.49,1.32-.86,2.3L71.68,51,69,50.8,61.89,32A3.61,3.61,0,0,0,61,30.46a2.39,2.39,0,0,0-1.38-.31h-.12Z" transform="translate(-0.2 -0.92)" style="fill:#eeaf2f;fill-rule:evenodd"></path></g><path id="Fill-11" d="M.2,34.74s1.51-6.31,5.72-9a16.22,16.22,0,0,1,7.1-1.6c14.55.09,17.26.15,28.49,2.43,0,0-9.35-3.91-26.55-3.7a.61.61,0,0,1-.67-.61,3.21,3.21,0,0,0,1.17-3.9,3.49,3.49,0,0,0-3.16-2.16,3,3,0,0,0-2.67,1.33,3.12,3.12,0,0,0,.18,3.34s-.64-3.9,2.37-4c0,0,2.15.12,2.68,1.76A2.79,2.79,0,0,1,13,22.09a1.13,1.13,0,0,0,.58.86S8,22.49,4.89,25.09c0,0-4.17,2.83-4.69,9.65" transform="translate(-0.2 -0.92)" style="fill:#fefefe;fill-rule:evenodd"></path><path id="Fill-13" d="M120.05,34.74s-1.5-6.31-5.72-9a16.17,16.17,0,0,0-7.1-1.6c-14.55.09-17.25.15-28.48,2.43,0,0,9.35-3.91,26.54-3.7a.62.62,0,0,0,.68-.61,3.22,3.22,0,0,1-1.18-3.9A3.51,3.51,0,0,1,108,16.23a3,3,0,0,1,2.66,1.33,3.1,3.1,0,0,1-.18,3.34s.64-3.9-2.36-4c0,0-2.16.12-2.68,1.76a2.79,2.79,0,0,0,1.82,3.39,1.16,1.16,0,0,1-.58.86s5.67-.46,8.73,2.14c0,0,4.16,2.83,4.68,9.65" transform="translate(-0.2 -0.92)" style="fill:#fefefe;fill-rule:evenodd"></path><path id="Fill-15" d="M17.42,22.05A84.67,84.67,0,0,1,27.31,9.11,19.62,19.62,0,0,1,37.77,4.24s17-2.74,44.49-.07a17.53,17.53,0,0,1,8.16,2.9s4.75,3.16,12.15,15A44.21,44.21,0,0,0,91.67,6.3a17.58,17.58,0,0,0-8.88-3.93s-25.92-3.45-46.64.29c0,0-6.51,1.08-10.24,6.17,0,0-5.88,7.23-8.49,13.22" transform="translate(-0.2 -0.92)" style="fill:#fefefe;fill-rule:evenodd"></path><polygon id="Fill-17" points="98.12 38.23 113.78 38.81 81.85 38.81 98.12 38.23" style="fill:#fefefe;fill-rule:evenodd"></polygon><polygon id="Fill-19" points="22.32 38.36 37.98 38.94 6.05 38.94 22.32 38.36" style="fill:#fefefe;fill-rule:evenodd"></polygon></g></g></g></svg> 