<?xml version="1.0" encoding="UTF-8"?> <svg xmlns="http://www.w3.org/2000/svg" xmlns:xlink="http://www.w3.org/1999/xlink" id="Layer_1" data-name="Layer 1" viewBox="0 0 80 81.9"><defs><linearGradient id="linear-gradient" x1="14.39" y1="67.19" x2="14.39" y2="66.19" gradientTransform="matrix(13.47, 0, 0, -13.47, -127.32, 916.2)" gradientUnits="userSpaceOnUse"><stop offset="0" stop-color="#ebbb5b"></stop><stop offset="1" stop-color="#bf9849"></stop></linearGradient></defs><g id="Page-1"><g id="_01.1-Home-Design-1" data-name="01.1-Home-Design-1"><g id="why-icon"><g id="Group-39"><g id="disc-brake-svgrepo-com"><path id="Shape" d="M15,11.42V11.1a1,1,0,0,0-1.06-1,8.42,8.42,0,0,0-8,8,1,1,0,0,0,.27.75,1,1,0,0,0,.72.31h.32A6.95,6.95,0,1,0,15,11.42ZM8.45,17.93H7.18a7.17,7.17,0,0,1,6.54-6.54v1.27a4.46,4.46,0,0,0-.51.07,6.47,6.47,0,0,0-1,.28l-.24.11-.22.09A5.93,5.93,0,0,0,8.45,17.93Zm5.66,4.18a3.79,3.79,0,1,1,3.78-3.79A3.79,3.79,0,0,1,14.11,22.11Z" style="fill:#bf9849"></path><path id="Shape-2" data-name="Shape" d="M14.11,15.79a2.53,2.53,0,1,0,2.52,2.53A2.53,2.53,0,0,0,14.11,15.79Zm0,.63a.63.63,0,1,1-.64.63A.63.63,0,0,1,14.11,16.42ZM12.84,19a.64.64,0,1,1,.63-.63A.63.63,0,0,1,12.84,19Zm1.27,1.26a.63.63,0,1,1,.63-.63A.64.64,0,0,1,14.11,20.21ZM15.37,19a.64.64,0,1,1,.63-.63A.63.63,0,0,1,15.37,19Z" style="fill:#bf9849"></path></g><g id="Fill-4"><path id="path-3" d="M68.08,17.68a1.56,1.56,0,1,0-1.57,1.56,1.56,1.56,0,0,0,1.57-1.56m4,3.84a1.72,1.72,0,0,1-.22.37c-.35.38-.73.74-1.09,1.11a.54.54,0,0,1-.71.08c-.25-.15-.49-.31-.74-.45a.8.8,0,0,0-1.23.5c-.08.26-.13.52-.19.78a.56.56,0,0,1-.64.51H65.81a.55.55,0,0,1-.63-.51c-.07-.27-.12-.55-.2-.81a.8.8,0,0,0-1.19-.49c-.27.15-.52.31-.78.47a.52.52,0,0,1-.7-.08c-.37-.37-.74-.73-1.1-1.1a.53.53,0,0,1-.08-.71c.15-.23.29-.46.43-.69A.82.82,0,0,0,61,19.2c-.25-.06-.5-.11-.75-.18a.55.55,0,0,1-.47-.6c0-.5,0-1,0-1.49a.53.53,0,0,1,.45-.58c.25-.06.51-.11.76-.18a.82.82,0,0,0,.55-1.32c-.13-.22-.27-.44-.41-.66a.53.53,0,0,1,.08-.73l1.08-1.08A.53.53,0,0,1,63,12.3c.23.15.47.3.71.43a.8.8,0,0,0,1.25-.5c.07-.26.12-.53.19-.79A.54.54,0,0,1,65.8,11h1.45a.54.54,0,0,1,.62.49c.07.27.12.55.2.82a.8.8,0,0,0,1.21.49l.78-.47a.5.5,0,0,1,.67.08c.38.37.76.74,1.12,1.12a.51.51,0,0,1,.08.68c-.14.23-.29.46-.42.69a.82.82,0,0,0,.54,1.32c.25.07.51.12.76.18a.53.53,0,0,1,.45.58v1.52a.53.53,0,0,1-.44.56l-.75.18a.83.83,0,0,0-.56,1.34c.13.21.27.42.39.63a3.17,3.17,0,0,1,.16.36" style="fill-rule:evenodd;fill:url(#linear-gradient)"></path><path id="path-3-2" data-name="path-3" d="M68.08,17.68a1.56,1.56,0,1,0-1.57,1.56,1.56,1.56,0,0,0,1.57-1.56m4,3.84a1.72,1.72,0,0,1-.22.37c-.35.38-.73.74-1.09,1.11a.54.54,0,0,1-.71.08c-.25-.15-.49-.31-.74-.45a.8.8,0,0,0-1.23.5c-.08.26-.13.52-.19.78a.56.56,0,0,1-.64.51H65.81a.55.55,0,0,1-.63-.51c-.07-.27-.12-.55-.2-.81a.8.8,0,0,0-1.19-.49c-.27.15-.52.31-.78.47a.52.52,0,0,1-.7-.08c-.37-.37-.74-.73-1.1-1.1a.53.53,0,0,1-.08-.71c.15-.23.29-.46.43-.69A.82.82,0,0,0,61,19.2c-.25-.06-.5-.11-.75-.18a.55.55,0,0,1-.47-.6c0-.5,0-1,0-1.49a.53.53,0,0,1,.45-.58c.25-.06.51-.11.76-.18a.82.82,0,0,0,.55-1.32c-.13-.22-.27-.44-.41-.66a.53.53,0,0,1,.08-.73l1.08-1.08A.53.53,0,0,1,63,12.3c.23.15.47.3.71.43a.8.8,0,0,0,1.25-.5c.07-.26.12-.53.19-.79A.54.54,0,0,1,65.8,11h1.45a.54.54,0,0,1,.62.49c.07.27.12.55.2.82a.8.8,0,0,0,1.21.49l.78-.47a.5.5,0,0,1,.67.08c.38.37.76.74,1.12,1.12a.51.51,0,0,1,.08.68c-.14.23-.29.46-.42.69a.82.82,0,0,0,.54,1.32c.25.07.51.12.76.18a.53.53,0,0,1,.45.58v1.52a.53.53,0,0,1-.44.56l-.75.18a.83.83,0,0,0-.56,1.34c.13.21.27.42.39.63a3.17,3.17,0,0,1,.16.36" style="fill:#bf9849;fill-rule:evenodd"></path></g><g id="car-wheel-svgrepo-com-_1_" data-name="car-wheel-svgrepo-com-(1)"><path id="Shape-3" data-name="Shape" d="M73.26,32A6.74,6.74,0,1,0,80,38.74,6.74,6.74,0,0,0,73.26,32Zm0,11.52a4.79,4.79,0,1,1,4.79-4.78A4.78,4.78,0,0,1,73.26,43.52Z" style="fill:#bf9849"></path><path id="Shape-4" data-name="Shape" d="M73.26,34.57a4.17,4.17,0,1,0,4.17,4.17A4.17,4.17,0,0,0,73.26,34.57Zm3.64,3.9h-2a1.68,1.68,0,0,0-.28-.69L76,36.35A3.65,3.65,0,0,1,76.9,38.47ZM73.52,35.1a3.62,3.62,0,0,1,2.12.88l-1.42,1.43a1.56,1.56,0,0,0-.7-.29Zm-.52,0v2a1.57,1.57,0,0,0-.69.29L70.88,36A3.64,3.64,0,0,1,73,35.1Zm-2.49,1.25,1.43,1.43a1.57,1.57,0,0,0-.29.69h-2A3.64,3.64,0,0,1,70.51,36.35ZM69.63,39h2a1.61,1.61,0,0,0,.29.7l-1.43,1.43A3.67,3.67,0,0,1,69.63,39ZM73,42.37a3.64,3.64,0,0,1-2.12-.88l1.43-1.43a1.68,1.68,0,0,0,.69.28Zm0-2.56h0a1.07,1.07,0,0,1-.31-.13h0a1.19,1.19,0,0,1-.37-.37h0a.9.9,0,0,1-.13-.32h0a1.09,1.09,0,0,1,0-.26,1.15,1.15,0,0,1,0-.26h0a.85.85,0,0,1,.13-.31h0a1.09,1.09,0,0,1,.37-.37h0a.85.85,0,0,1,.31-.13h0a1.15,1.15,0,0,1,.26,0,1.09,1.09,0,0,1,.26,0h0a.9.9,0,0,1,.32.13h0a1.19,1.19,0,0,1,.37.37h0a1.07,1.07,0,0,1,.13.31h0a1.15,1.15,0,0,1,0,.26,1.09,1.09,0,0,1,0,.26h0a1.13,1.13,0,0,1-.13.32h0a1.3,1.3,0,0,1-.37.37h0a1.13,1.13,0,0,1-.32.13h0a1.09,1.09,0,0,1-.26,0A1.15,1.15,0,0,1,73,39.81Zm.52,2.56v-2a1.67,1.67,0,0,0,.7-.28l1.43,1.43A3.67,3.67,0,0,1,73.52,42.37ZM76,41.12l-1.43-1.43a1.72,1.72,0,0,0,.28-.7h2A3.67,3.67,0,0,1,76,41.12Z" style="fill:#bf9849"></path></g><g id="car-steering-wheel-svgrepo-com"><path id="Shape-5" data-name="Shape" d="M6.74,32a6.74,6.74,0,1,0,6.73,6.74A6.74,6.74,0,0,0,6.74,32Zm0,1.68a5.06,5.06,0,0,1,4.74,3.37H2A5.06,5.06,0,0,1,6.74,33.68Zm0,5.9a.85.85,0,1,1,.84-.84A.85.85,0,0,1,6.74,39.58Zm-5.06-.84c2.31,0,4.17,2.21,4.21,5A5,5,0,0,1,1.68,38.74Zm5.91,5c0-2.75,1.9-5,4.2-5A5,5,0,0,1,7.59,43.7Z" style="fill:#bf9849"></path></g><g id="piston-svgrepo-com"><polygon id="Rectangle" points="31.63 28.55 31.63 24.55 49.21 24.55 49.21 28.55 31.63 28.55" style="fill:#bf9849"></polygon><path id="Shape-6" data-name="Shape" d="M31.63,30.72v8.11h5.84V54.22a4.29,4.29,0,1,0,5.9,0V38.83h5.84V30.72ZM42.54,57.33a2.12,2.12,0,1,1-2.12-2.12A2.12,2.12,0,0,1,42.54,57.33Zm-1-22.84a1.12,1.12,0,1,1-1.12-1.12A1.12,1.12,0,0,1,41.54,34.49Z" style="fill:#bf9849"></path></g><g id="engine-motor-svgrepo-com-_1_" data-name="engine-motor-svgrepo-com-(1)"><path id="Shape-7" data-name="Shape" d="M48.57,3.37H47.45a.27.27,0,0,0-.27.19L46.4,5.89h-.76l-.76-1.26a.28.28,0,0,0-.24-.14H43.51V3.65a.28.28,0,0,0-.28-.28h-2V2.25h.84A.28.28,0,0,0,42.39,2V.28A.28.28,0,0,0,42.11,0H37.05a.29.29,0,0,0-.28.28V2a.28.28,0,0,0,.28.28h.84V3.37H35.65a.27.27,0,0,0-.28.28v.84h-2a.28.28,0,0,0-.28.28V6.45h-.56V5.62a.28.28,0,0,0-.56,0V7.86a.28.28,0,1,0,.56,0V7h.56V9.27a.29.29,0,0,0,.28.28h2.1l1,1.56a.27.27,0,0,0,.23.12h7.87a.29.29,0,0,0,.25-.15l.76-1.53h.78l.76,1.53a.28.28,0,0,0,.25.15h1.12a.27.27,0,0,0,.28-.28V3.65A.27.27,0,0,0,48.57,3.37ZM35.37,9H33.68V5.05h1.69V9ZM40.7,3.37H38.45V2.24H40.7ZM46.32,9h-.56V6.46h.56Z" style="fill:#bf9849"></path></g><g id="oil-svgrepo-com"><path id="Shape-8" data-name="Shape" d="M71.33,61.15l-3.88-3.89a.48.48,0,0,0-.32-.13H66.5V56.7h0a.45.45,0,0,0,.44-.45V55.18a.44.44,0,0,0-.44-.44H64.23a.44.44,0,0,0-.44.44v1.07a.45.45,0,0,0,.44.45h0v.43h-.63a.45.45,0,0,0-.45.45V67.76a.45.45,0,0,0,.45.45H71a.45.45,0,0,0,.44-.45v-6.3A.42.42,0,0,0,71.33,61.15Zm-4,3.95a1.25,1.25,0,0,1-1.26-1.26,7.41,7.41,0,0,1,1-2.27.3.3,0,0,1,.52,0,7.17,7.17,0,0,1,1,2.27A1.25,1.25,0,0,1,67.31,65.1Z" style="fill:#bf9849"></path></g><g id="car-battery-svgrepo-com"><path id="Path" d="M46.94,72.45H44.87v-.66a.21.21,0,0,0-.21-.21H43.18a.22.22,0,0,0-.22.21v.66H37.88v-.66a.22.22,0,0,0-.22-.21H36.18a.22.22,0,0,0-.21.21v.66H33.9a.22.22,0,0,0-.22.22V74a.22.22,0,0,0,.22.22h13a.22.22,0,0,0,.22-.22V72.67A.22.22,0,0,0,46.94,72.45Z" style="fill:#bf9849"></path><path id="Shape-9" data-name="Shape" d="M34.6,81.62a.29.29,0,0,0,.28.28H46a.28.28,0,0,0,.28-.28V75H34.6Zm4.5-2.86.65-2.1a.1.1,0,0,1,.08-.06h1a.09.09,0,0,1,.07,0,.09.09,0,0,1,0,.07L40.54,78h1.12a.09.09,0,0,1,.08,0,.14.14,0,0,1,0,.09l-1.51,2.33a.08.08,0,0,1-.07,0h0a.07.07,0,0,1-.05-.09l.24-1.48H39.18a.08.08,0,0,1-.07,0A.06.06,0,0,1,39.1,78.76Z" style="fill:#bf9849"></path></g><g id="damper-svgrepo-com-_1_" data-name="damper-svgrepo-com-(1)"><path id="Path-2" data-name="Path" d="M9.43,65.57a.56.56,0,1,0,.79,0A.56.56,0,0,0,9.43,65.57Z" style="fill:#bf9849"></path><path id="Shape-10" data-name="Shape" d="M20.89,56.49,19.3,54.9a.56.56,0,0,0-.79,0l-1.19,1.19a.57.57,0,0,0,0,.8l.39.39-1.53,1.54-.4-.4h0l-1.19-1.19a.57.57,0,0,0-.8,0,.59.59,0,0,0,0,.8l.8.79L13.4,60A1.68,1.68,0,0,0,11,60L9.83,61.2h0a.59.59,0,0,0,0,.8l.8.79-.94.94a2.23,2.23,0,1,0,2.39,2.38l.93-.94.79.8a.57.57,0,0,0,.8-.8l-.8-.79L15,63.19a1.69,1.69,0,0,0,2.38,0L18.56,62a.57.57,0,0,0,0-.8L17.37,60h0l-.4-.4,1.54-1.53.39.39a.57.57,0,0,0,.8,0l1.19-1.19A.56.56,0,0,0,20.89,56.49Zm-4.71,3.92L15,61.6l-.8-.79,1.19-1.2ZM11,61.6l.79-.79a.56.56,0,0,1,.79,0h0L11.41,62ZM9,66.76a1.12,1.12,0,0,1,0-1.59,1.11,1.11,0,0,1,.79-.33h.06a1.19,1.19,0,0,1,.74.32,1.14,1.14,0,0,1,.32.74A.13.13,0,0,0,11,66a1.11,1.11,0,0,1-.33.79A1.12,1.12,0,0,1,9,66.76Zm2.73-1.93-.15-.23h0l0-.06s0,0-.05,0l0,0-.06-.06h0l-.06-.06,0,0-.06-.05,0,0,0,0L11,64l.44-.45.8.8Zm.45-2L13.4,61.6l.79.79L13,63.58Zm3.57-.4L17,61.2l.4.4-.8.79A.56.56,0,0,1,15.78,62.39Zm3.52-5.11-.79-.79.39-.4.8.8Z" style="fill:#bf9849"></path></g></g></g></g></g></svg> 